<?xml version="1.0" encoding="utf-8"?>
<!-- Generator: Adobe Illustrator 19.0.0, SVG Export Plug-In . SVG Version: 6.00 Build 0)  -->
<svg version="1.1" id="Layer_1" xmlns="http://www.w3.org/2000/svg" xmlns:xlink="http://www.w3.org/1999/xlink" x="0px" y="0px"
	 viewBox="0 0 1056 333" style="enable-background:new 0 0 1056 333;" xml:space="preserve">
<style type="text/css">
	.st0{fill:#131F6B;}
	.st1{fill:#8547AD;}
</style>
<g>
	<path class="st0" d="M391.3,77.9h-17.6v77.8l-60.5-77.8h-17.6v97.7h-14.5h-2.8l-43.1-97.7h-18.8l-43.1,97.7h-2.8h-14.5h-25.3
		l39.3-97.7h-19.7l-32,77.8l-32-77.8H66.8l39.2,97.7H66.3v6.4h89.9h14.5h18.8l10.4-23.7H252l10.4,23.7h18.8h14.5h17.6v-76l59,76
		h33.5v-6.4h-14.5V77.9z M207,142.1l18.9-42.9l18.9,42.9H207z"/>
	<polygon class="st0" points="990.8,175.6 990.8,77.9 973.2,77.9 973.2,155.7 912.7,77.9 895.1,77.9 895.1,175.6 887.1,175.6 
		880.7,175.6 872.6,175.6 872.6,165.5 815.2,165.5 815.2,137.6 865.2,137.6 865.2,122 815.2,122 815.2,94.4 870.8,94.4 870.8,77.9 
		797.7,77.9 797.7,175.6 783.2,175.6 747,175.6 747,94 778.6,94 778.6,77.9 697.8,77.9 697.8,94 729.4,94 729.4,175.6 702.9,175.6 
		693.2,175.6 688.4,175.6 688.4,165.4 640.9,165.4 640.9,77.9 623.3,77.9 623.3,175.6 608.9,175.6 594.4,175.6 594.4,77.9 
		576.8,77.9 576.8,175.6 562.4,175.6 562.4,175.6 547.9,175.6 547.9,77.9 530.3,77.9 530.3,123 478.6,123 478.6,77.9 461.1,77.9 
		461.1,175.6 446.6,175.6 446.6,182 461.1,182 478.6,182 478.6,139.4 530.3,139.4 530.3,182 562.4,182 562.4,182 608.9,182 
		693.2,182 702.9,182 783.2,182 880.7,182 887.1,182 912.7,182 912.7,106 971.7,182 1005.2,182 1005.2,175.6 	"/>
</g>
<g>
	<path class="st1" d="M157.8,236.5h-12.1l-0.8,2c-1.2,2.9-1.8,4.8-1.8,5.7c0,1,0.3,1.7,1,2.2c0.6,0.5,1.5,0.7,2.5,0.7v1.1h-9.4v-1.1
		c1.4-0.2,2.5-0.7,3.1-1.5c0.7-0.8,1.5-2.4,2.5-4.9c0.1-0.2,0.5-1.1,1.1-2.7l9.2-22.1h0.9l10.6,25.2l1.5,3.3
		c0.3,0.8,0.8,1.3,1.3,1.8c0.6,0.4,1.4,0.7,2.5,0.8v1.1h-12.5v-1.1c1.5,0,2.6-0.1,3.1-0.3c0.5-0.2,0.8-0.7,0.8-1.3
		c0-0.3-0.4-1.4-1.1-3.1L157.8,236.5z M157.4,235.4l-5.6-13.5l-5.6,13.5H157.4z"/>
	<path class="st1" d="M177.9,216.7l5.2-0.3c4.4-0.2,7.3-0.3,8.8-0.3c4.7,0,8.4,0.7,11,2.2c2.6,1.4,4.6,3.4,5.9,5.8
		c1.3,2.5,1.9,5.3,1.9,8.5c0,2.3-0.3,4.5-1.1,6.4c-0.7,1.9-1.7,3.5-2.9,4.8c-1.2,1.3-2.6,2.2-4.3,2.9c-1.6,0.7-3.1,1.1-4.6,1.2
		c-1.5,0.2-3.5,0.2-6.1,0.2h-14.1v-1.1h1.3c1.4,0,2.3-0.2,2.8-0.5c0.5-0.3,0.9-0.9,1-1.6c0.1-0.7,0.2-2.4,0.2-5.1v-15.3
		c0-2.5-0.1-4.2-0.2-4.9c-0.1-0.7-0.5-1.2-0.9-1.5c-0.5-0.3-1.5-0.4-3.1-0.4h-0.9V216.7z M187.7,217.3v21.2c0,3.1,0.1,5.2,0.2,6.1
		c0.1,0.9,0.5,1.5,1.1,1.9c0.6,0.4,1.8,0.6,3.7,0.6c2.8,0,5-0.4,6.8-1.1c1.8-0.8,3.3-2.2,4.5-4.5c1.2-2.2,1.8-5.1,1.8-8.5
		c0-2.7-0.3-5.1-1-7.2c-0.7-2.1-1.7-3.8-3-5.1c-1.3-1.3-2.7-2.2-4.3-2.7c-1.6-0.5-3.6-0.7-6.1-0.7
		C190.1,217.2,188.9,217.3,187.7,217.3z"/>
	<path class="st1" d="M235.2,248.9h-1.5l-11-25.3c-0.2-0.5-0.5-1.2-1-2.3c-0.6-1.5-1.2-2.5-1.9-3c-0.7-0.5-1.8-0.8-3.3-0.8v-1.1
		h13.7v1.1c-1.7,0-2.8,0.1-3.4,0.4c-0.6,0.2-0.9,0.7-0.9,1.4c0,0.5,0.4,1.5,1.1,3.2l9.1,21.1l7.3-17.6c1.2-2.9,1.8-4.9,1.8-5.7
		c0-1.8-1.3-2.7-3.8-2.8v-1.1h9.7v1.1c-1,0-1.9,0.4-2.6,1.1c-0.8,0.7-1.4,1.7-1.9,3l-2.1,5L235.2,248.9z"/>
	<path class="st1" d="M258.1,232.1c0-4.9,1.6-8.8,4.9-11.8c3.3-3,7.4-4.5,12.3-4.5c5,0,9.1,1.5,12.4,4.4c3.3,2.9,5,6.9,5,12
		c0,4.9-1.6,8.9-4.8,12c-3.2,3-7.4,4.6-12.5,4.6c-5,0-9.2-1.5-12.4-4.6C259.7,241.2,258.1,237.1,258.1,232.1z M263.4,232.3
		c0,5.1,1,8.9,3.1,11.5c2,2.6,5.1,3.8,9.2,3.8c3.6,0,6.4-1.3,8.5-3.8c2.1-2.6,3.1-6.4,3.1-11.5c0-4.9-1-8.7-3.1-11.4
		c-2-2.6-5-3.9-8.9-3.9c-3.8,0-6.8,1.3-8.8,3.9C264.4,223.4,263.4,227.2,263.4,232.3z"/>
	<path class="st1" d="M332.6,236.3h1v11.1h-1c-0.3-1.3-0.8-2.4-1.5-3.4c-2.8,3.2-6.4,4.7-10.7,4.7c-4.6,0-8.3-1.5-11.3-4.4
		c-2.9-2.9-4.4-6.7-4.4-11.5c0-3.1,0.7-6.1,2-8.9c1.3-2.8,3.2-4.8,5.6-6.2c2.4-1.3,5-2,7.9-2c2.4,0,4.5,0.5,6.5,1.5
		c1.9,1,3.4,2.1,4.3,3.2c0.7-1.3,1.1-2.7,1.2-4.1h1l0.3,12h-1c-0.7-4.3-2.1-7.3-4.3-8.9c-2.2-1.7-4.6-2.5-7.3-2.5
		c-3.3,0-6,1.4-7.9,4.1c-2,2.7-2.9,6.6-2.9,11.6c0,4.8,1.1,8.4,3.2,11c2.1,2.5,4.8,3.8,8,3.8c1.7,0,3.4-0.4,5.2-1.2
		c1.8-0.8,3.2-2.2,4.2-4.2C331.8,240,332.4,238.1,332.6,236.3z"/>
	<path class="st1" d="M364.7,236.5h-12.1l-0.8,2c-1.2,2.9-1.8,4.8-1.8,5.7c0,1,0.3,1.7,1,2.2c0.6,0.5,1.5,0.7,2.5,0.7v1.1H344v-1.1
		c1.4-0.2,2.4-0.7,3.1-1.5c0.7-0.8,1.5-2.4,2.5-4.9c0.1-0.2,0.5-1.1,1.1-2.7L360,216h0.9l10.6,25.2l1.5,3.3c0.3,0.8,0.8,1.3,1.3,1.8
		c0.6,0.4,1.4,0.7,2.5,0.8v1.1h-12.5v-1.1c1.5,0,2.6-0.1,3.1-0.3c0.5-0.2,0.8-0.7,0.8-1.3c0-0.3-0.4-1.4-1.1-3.1L364.7,236.5z
		 M364.3,235.4l-5.6-13.5l-5.6,13.5H364.3z"/>
	<path class="st1" d="M382.4,224.1h-1.1l0.2-7.6h30.8l0.2,7.6h-1c-0.4-2.1-0.9-3.6-1.5-4.5c-0.6-0.9-1.3-1.5-2-1.7
		c-0.7-0.2-1.9-0.3-3.7-0.3h-5.1v22.4c0,2.5,0.1,4.1,0.2,4.9c0.1,0.8,0.4,1.4,0.9,1.7c0.5,0.4,1.5,0.6,2.9,0.6h1.5v1.1H389v-1.1h1.6
		c1.4,0,2.3-0.2,2.8-0.5c0.5-0.3,0.9-0.9,1-1.6c0.1-0.7,0.2-2.4,0.2-5.1v-22.4h-4.7c-2,0-3.4,0.1-4.1,0.3c-0.7,0.2-1.4,0.8-2,1.8
		C383.2,220.5,382.8,222,382.4,224.1z"/>
	<path class="st1" d="M448.2,238.3h1.1l-0.7,9.9h-26.3v-1.1h0.7c1.6,0,2.6-0.2,3.1-0.6c0.5-0.4,0.8-1,0.9-1.6c0.1-0.7,0.2-2.3,0.2-5
		v-15.6c0-2.4-0.1-4-0.2-4.8c-0.1-0.8-0.4-1.3-0.9-1.6c-0.5-0.3-1.5-0.5-3-0.5v-1.1h22.7l0.8,7.9h-1.1c-0.5-2.2-1.1-3.8-1.8-4.7
		c-0.7-0.9-1.6-1.5-2.6-1.8c-1-0.2-2.6-0.4-4.8-0.4h-4.4v13.3h3.4c1.5,0,2.6-0.1,3.2-0.4c0.6-0.3,1-0.7,1.2-1.2
		c0.2-0.5,0.3-1.6,0.3-3.2h1.1v10.9h-1.1c0-1.8-0.1-2.9-0.4-3.6c-0.3-0.6-0.7-1-1.3-1.2c-0.6-0.2-1.5-0.3-2.9-0.3h-3.5v7.5
		c0,3.8,0.2,6,0.7,6.6c0.5,0.7,1.8,1,3.9,1h2.4c1.7,0,3-0.2,4.1-0.6c1.1-0.4,2.1-1.3,3.1-2.6C446.9,242.5,447.6,240.7,448.2,238.3z"
		/>
	<path class="st1" d="M487.6,248.9l-22.5-29.8v22.1c0,1.8,0.1,3,0.3,3.6c0.2,0.6,0.7,1.1,1.5,1.6c0.8,0.5,2.1,0.7,3.8,0.7v1.1h-11.9
		v-1.1c1.5-0.1,2.7-0.4,3.5-0.8c0.8-0.4,1.3-0.9,1.4-1.4c0.2-0.5,0.2-1.7,0.2-3.7v-16.9c0-2.4-0.1-4.1-0.3-4.9
		c-0.2-0.8-0.6-1.4-1.1-1.6c-0.5-0.2-1.6-0.3-3.3-0.3v-1.1h9.4l18.8,24.9v-19c0-1.4-0.1-2.4-0.4-3c-0.3-0.6-0.9-1-1.8-1.3
		c-0.9-0.3-2-0.5-3.2-0.5v-1.1h11.5v1.1c-1.3,0.1-2.4,0.4-3.2,0.8c-0.8,0.4-1.3,0.9-1.5,1.5c-0.2,0.6-0.3,1.5-0.3,2.9v26.3H487.6z"
		/>
	<path class="st1" d="M541.1,229h10v1.1c-1.2,0.3-2.4,1-3.3,1.8c-0.9,0.8-1.9,2.5-2.9,4.9c-0.8,2-1.6,3.5-2.3,4.4
		c1.7,2.4,3,3.9,3.9,4.5c1,0.6,2,1,3,1c1.5,0,2.6-0.7,3.4-2.1h1.1c-0.3,1.3-1,2.3-2.1,3.1c-1.1,0.8-2.3,1.2-3.7,1.2
		c-3,0-5.7-1.5-8-4.6c-2.7,3.1-5.6,4.6-8.7,4.6c-1.1,0-2.2-0.2-3.3-0.6c-1.1-0.4-2-1-2.9-1.8c-0.8-0.8-1.5-1.7-2-2.8
		c-0.5-1.1-0.8-2.2-0.7-3.5c0-2,0.5-3.6,1.6-4.9c1.1-1.3,3.1-3,6.2-5.1c-1.8-2.5-2.7-4.9-2.7-6.9c0-1.6,0.6-3.1,1.9-4.3
		c1.2-1.3,2.8-1.9,4.7-1.9c1.7,0,3.2,0.5,4.6,1.4c1.4,1,2,2.2,2,3.7c0,2.4-2.2,4.7-6.7,7c1.4,1.9,2.8,3.7,4.1,5.6
		c1.3,1.8,2.6,3.6,3.8,5.4c0.9-1.2,1.6-2.5,2.1-3.9c0.5-1.3,0.8-2.4,0.8-3.1c0-1.8-1.2-2.8-3.7-3.1V229z M531,231.2
		c-1.6,1-2.9,2.2-3.8,3.5c-0.9,1.3-1.3,2.6-1.3,3.9c0,1.9,0.8,3.8,2.3,5.5c1.5,1.7,3.3,2.6,5.2,2.6c2.2,0,4.2-1.1,6-3.2
		c-1.7-2.5-3.2-4.8-4.6-6.8C533.5,234.6,532.2,232.8,531,231.2z M533.3,228.4c3.1-1.8,4.7-3.8,4.7-5.9c0-0.6-0.1-1.2-0.3-1.7
		c-0.2-0.5-0.4-1-0.8-1.3c-0.3-0.4-0.7-0.7-1.2-0.9c-0.5-0.2-1-0.3-1.5-0.3c-1.1,0-2,0.4-2.7,1.1c-0.7,0.7-1,1.7-1,2.8
		C530.5,223.7,531.4,225.8,533.3,228.4z"/>
	<path class="st1" d="M602.6,242.7l11.6-26.3h9.7v1.1h-1.2c-1.6,0-2.6,0.1-3.1,0.4c-0.5,0.3-0.8,0.7-1,1.4c-0.2,0.7-0.2,2.4-0.2,5
		v15.6c0,2.5,0.1,4.1,0.2,4.9c0.1,0.8,0.4,1.3,0.9,1.7c0.5,0.4,1.5,0.6,2.9,0.6h1.4v1.1h-15.2v-1.1h1.1c1.3,0,2.3-0.2,2.8-0.5
		c0.5-0.3,0.9-0.9,1-1.6c0.1-0.7,0.2-2.4,0.2-5.1v-20.2l-12.6,28.5h-1.1l-12.7-28.5v18.6c0,2.5,0.1,4.3,0.2,5.2
		c0.2,0.9,0.6,1.7,1.5,2.4c0.8,0.7,2,1.1,3.4,1.2v1.1h-11.4v-1.1c1.4-0.1,2.5-0.5,3.3-1.1c0.9-0.7,1.4-1.5,1.6-2.4
		c0.2-1,0.3-2.8,0.3-5.4v-13.8c0-2.5-0.1-4.2-0.2-4.9c-0.1-0.7-0.5-1.2-0.9-1.5c-0.5-0.3-1.5-0.4-3.1-0.4h-0.9v-1.1h9.7L602.6,242.7
		z"/>
	<path class="st1" d="M659.4,238.3h1.1l-0.7,9.9h-26.3v-1.1h0.7c1.6,0,2.6-0.2,3.1-0.6c0.5-0.4,0.8-1,0.9-1.6c0.1-0.7,0.2-2.3,0.2-5
		v-15.6c0-2.4-0.1-4-0.2-4.8c-0.1-0.8-0.4-1.3-0.9-1.6c-0.5-0.3-1.5-0.5-3-0.5v-1.1h22.7l0.7,7.9h-1.1c-0.5-2.2-1.1-3.8-1.8-4.7
		c-0.7-0.9-1.6-1.5-2.6-1.8s-2.6-0.4-4.8-0.4h-4.4v13.3h3.4c1.5,0,2.6-0.1,3.2-0.4c0.6-0.3,1-0.7,1.2-1.2c0.2-0.5,0.3-1.6,0.3-3.2
		h1.1v10.9H651c0-1.8-0.2-2.9-0.4-3.6c-0.3-0.6-0.7-1-1.3-1.2c-0.6-0.2-1.5-0.3-2.9-0.3h-3.5v7.5c0,3.8,0.2,6,0.7,6.6
		c0.5,0.7,1.8,1,3.9,1h2.4c1.7,0,3-0.2,4.1-0.6c1.1-0.4,2.1-1.3,3.1-2.6C658.1,242.5,658.8,240.7,659.4,238.3z"/>
	<path class="st1" d="M670.3,216.7l5.2-0.3c4.4-0.2,7.3-0.3,8.8-0.3c4.7,0,8.4,0.7,11,2.2c2.6,1.4,4.6,3.4,5.9,5.8
		c1.3,2.5,1.9,5.3,1.9,8.5c0,2.3-0.4,4.5-1.1,6.4c-0.7,1.9-1.7,3.5-2.9,4.8c-1.2,1.3-2.6,2.2-4.3,2.9c-1.6,0.7-3.1,1.1-4.6,1.2
		c-1.5,0.2-3.5,0.2-6.1,0.2h-14.1v-1.1h1.3c1.4,0,2.3-0.2,2.8-0.5c0.5-0.3,0.9-0.9,1-1.6c0.1-0.7,0.2-2.4,0.2-5.1v-15.3
		c0-2.5-0.1-4.2-0.2-4.9c-0.1-0.7-0.5-1.2-0.9-1.5c-0.5-0.3-1.5-0.4-3.1-0.4h-0.9V216.7z M680.1,217.3v21.2c0,3.1,0.1,5.2,0.2,6.1
		c0.1,0.9,0.5,1.5,1.1,1.9c0.6,0.4,1.8,0.6,3.7,0.6c2.8,0,5-0.4,6.8-1.1c1.8-0.8,3.3-2.2,4.5-4.5c1.2-2.2,1.8-5.1,1.8-8.5
		c0-2.7-0.3-5.1-1-7.2c-0.7-2.1-1.7-3.8-3-5.1c-1.3-1.3-2.7-2.2-4.3-2.7c-1.6-0.5-3.6-0.7-6.1-0.7
		C682.5,217.2,681.3,217.3,680.1,217.3z"/>
	<path class="st1" d="M714.1,217.5v-1.1h14.5v1.1H728c-1.6,0-2.6,0.1-3.1,0.4c-0.5,0.3-0.8,0.7-1,1.4c-0.2,0.7-0.2,2.4-0.2,5v15.6
		c0,2.5,0.1,4.1,0.2,4.9c0.1,0.8,0.4,1.3,0.9,1.7c0.5,0.4,1.5,0.6,2.9,0.6h0.9v1.1h-14.5v-1.1h0.9c1.4,0,2.3-0.2,2.8-0.5
		c0.5-0.3,0.9-0.9,1-1.6c0.1-0.7,0.2-2.4,0.2-5.1v-15.6c0-2.5-0.1-4.2-0.2-4.9c-0.1-0.7-0.5-1.2-0.9-1.5c-0.5-0.3-1.5-0.4-3.1-0.4
		H714.1z"/>
	<path class="st1" d="M757.8,236.5h-12.1l-0.8,2c-1.2,2.9-1.8,4.8-1.8,5.7c0,1,0.3,1.7,1,2.2c0.7,0.5,1.5,0.7,2.5,0.7v1.1h-9.4v-1.1
		c1.4-0.2,2.5-0.7,3.1-1.5c0.7-0.8,1.5-2.4,2.5-4.9c0.1-0.2,0.5-1.1,1.1-2.7l9.2-22.1h0.9l10.6,25.2l1.5,3.3
		c0.3,0.8,0.8,1.3,1.3,1.8c0.6,0.4,1.4,0.7,2.5,0.8v1.1h-12.5v-1.1c1.5,0,2.6-0.1,3.1-0.3c0.5-0.2,0.8-0.7,0.8-1.3
		c0-0.3-0.4-1.4-1.1-3.1L757.8,236.5z M757.4,235.4l-5.6-13.5l-5.6,13.5H757.4z"/>
	<path class="st1" d="M775.5,224.1h-1.1l0.2-7.6h30.8l0.2,7.6h-1c-0.4-2.1-0.9-3.6-1.5-4.5c-0.6-0.9-1.3-1.5-2-1.7
		c-0.7-0.2-1.9-0.3-3.7-0.3h-5.1v22.4c0,2.5,0.1,4.1,0.2,4.9c0.1,0.8,0.4,1.4,1,1.7c0.5,0.4,1.5,0.6,2.9,0.6h1.5v1.1H782v-1.1h1.6
		c1.4,0,2.3-0.2,2.8-0.5c0.5-0.3,0.9-0.9,1-1.6c0.1-0.7,0.2-2.4,0.2-5.1v-22.4H783c-2,0-3.4,0.1-4.1,0.3c-0.7,0.2-1.4,0.8-2,1.8
		C776.3,220.5,775.8,222,775.5,224.1z"/>
	<path class="st1" d="M814.1,232.1c0-4.9,1.6-8.8,4.9-11.8c3.3-3,7.4-4.5,12.3-4.5c5,0,9.1,1.5,12.4,4.4c3.3,2.9,5,6.9,5,12
		c0,4.9-1.6,8.9-4.8,12c-3.2,3-7.4,4.6-12.5,4.6c-5,0-9.2-1.5-12.4-4.6C815.8,241.2,814.1,237.1,814.1,232.1z M819.5,232.3
		c0,5.1,1,8.9,3.1,11.5c2,2.6,5.1,3.8,9.2,3.8c3.6,0,6.4-1.3,8.5-3.8c2.1-2.6,3.1-6.4,3.1-11.5c0-4.9-1-8.7-3.1-11.4
		c-2-2.6-5-3.9-8.9-3.9c-3.8,0-6.8,1.3-8.8,3.9C820.5,223.4,819.5,227.2,819.5,232.3z"/>
	<path class="st1" d="M893.3,248.2h-8.6c-1.5-1.1-3.8-3.8-7-8.3c-1-1.4-2-2.8-3.1-4.1c-1.1-1.3-1.8-2.1-2.2-2.4
		c-0.4-0.3-1-0.4-1.9-0.4h-1.3v7.1c0,2.5,0.1,4.1,0.2,4.9c0.1,0.8,0.4,1.3,0.9,1.7c0.5,0.4,1.5,0.6,2.9,0.6h1.5v1.1h-15.2v-1.1h1
		c1.4,0,2.3-0.2,2.8-0.5c0.5-0.3,0.9-0.9,1-1.6c0.1-0.7,0.2-2.4,0.2-5.1v-15.6c0-2.5-0.1-4.2-0.2-4.9c-0.1-0.7-0.5-1.2-0.9-1.5
		c-0.5-0.3-1.5-0.4-3.1-0.4h-0.5v-1.1l4.5-0.2c3-0.1,5.4-0.2,7.2-0.2c3,0,5.5,0.3,7.4,0.8c1.9,0.6,3.4,1.5,4.6,2.8
		c1.2,1.3,1.8,2.8,1.8,4.6c0,2.1-0.8,3.9-2.3,5.3c-1.5,1.5-3.8,2.4-6.8,2.7c1.3,0.6,3.5,3,6.4,6.9c2.4,3.2,4.3,5.4,5.7,6.4
		c1.4,1,3,1.5,4.9,1.6V248.2z M869.2,231.8c1.2,0,2.4-0.1,3.6-0.1c1.2-0.1,2.3-0.2,3.3-0.5c0.9-0.3,1.7-0.7,2.2-1.2
		c0.6-0.5,1-1.2,1.3-2.1c0.3-0.9,0.5-2,0.5-3.2c0-2.2-0.6-4-1.7-5.4c-1.1-1.3-3.6-2-7.3-2c-0.6,0-1.2,0-2,0.1V231.8z"/>
	<path class="st1" d="M903.3,247.9v-10.2h1.2c1.3,6.7,4.5,10,9.4,10c2.2,0,4-0.6,5.2-1.9c1.2-1.3,1.8-2.7,1.8-4.3
		c0-1.6-0.5-2.9-1.6-4c-1.1-1.1-3-2.2-5.9-3.4c-2.5-1.1-4.5-2.1-5.8-2.9c-1.3-0.8-2.3-1.9-3-3.2c-0.7-1.3-1.1-2.7-1.1-4.2
		c0-2.3,0.8-4.2,2.4-5.7c1.6-1.5,3.6-2.3,6-2.3c1.3,0,2.6,0.2,3.8,0.7c1.2,0.4,2.4,1.3,3.7,2.7c0.7-0.9,1.1-1.8,1.2-2.8h1v8.3h-1
		c-0.6-2.4-1.6-4.3-3.2-5.7c-1.5-1.4-3.3-2.1-5.2-2.1c-1.9,0-3.3,0.5-4.2,1.5c-0.9,1-1.3,2.1-1.3,3.4c0,1.5,0.6,2.7,1.7,3.7
		c1.1,1,3.1,2.2,5.9,3.5c2.7,1.2,4.7,2.2,6,2.9c1.2,0.7,2.2,1.8,3,3.1c0.7,1.3,1.1,2.8,1.1,4.5c0,2.7-0.9,4.9-2.7,6.6
		c-1.8,1.7-4.2,2.6-7.3,2.6c-3.5,0-6.4-1.3-8.7-4c-0.5,0.7-0.9,1.8-1.1,3.1H903.3z"/>
</g>
</svg>
